<svg id="Camada_1" data-name="Camada 1" xmlns="http://www.w3.org/2000/svg" viewBox="0 0 1908.04 1908.04">
  <defs>
    <style>.cls-1{fill:#3eaaf3;}.cls-2{fill:#fff;}</style>
  </defs>
  <g id="Amarelo">
    <circle class="cls-1" cx="954.02" cy="954.02" r="954.02"/>
    <path class="cls-1" d="M1014.25,1912.24l-769.29.87c-130.45.15-236.31-105.48-236.46-235.92l-.86-769.3Z" transform="translate(-6 -5.96)"/>
  </g>
  <path class="cls-2" d="M1230.71,606.66c-94.84-113.15-239.59-25-302.82-25s-208-88.19-302.82,25-89.84,271.2-39.92,366,54.9,236.27,56.56,296.17S679.8,1423.6,739,1423.6s110.73-271.2,188.93-271.2,129.78,271.2,188.94,271.2,95.58-94.84,97.24-154.73,6.66-201.33,56.57-296.17S1325.55,719.8,1230.71,606.66Z" transform="translate(-6 -5.96)"/>
</svg>